<svg xmlns="http://www.w3.org/2000/svg" xml:space="preserve" id="Layer_1" x="0" y="0" version="1.1" viewBox="0 0 873.3 1114.1">
  <style>
    .st0{fill:none;stroke:#ffffff;stroke-linecap:round;stroke-linejoin:round}
  </style>
  <path d="M920.2 760c-5.6 15.5-9.6 30.3-10.8 42.9-4 41.6-17.3 74.2-51.5 90.1-36.3 16.9-71.6-3.9-98.5-16.5-30.9-14.4-91.6-33.7-137.7-43.9" class="st0"/>
  <path fill="#ffffff" d="m915.7 173.9-16.1 6.7 13.8 10.6 2.3-17.3zM736 414.8l-6.5 16.2 17.2-2.5-10.7-13.7zM566.2 301.3l16.6 5.1-3.9-17-12.7 11.9zm272.1-45 16.4-5.8-13.2-11.3-3.2 17.1zM346.5 498.8l1 17.4 14.6-9.5-15.6-7.9z"/>
  <path d="M317.5 20.1c2-1 4-2 6.1-3C398.9-18 473.1 5.9 549 58.2c0 0 170.9 96.8 294.3 117.5M84.1 541.9l1.5-2.1C183.1 398.5 202.4 273.9 211.4 207c6.2-46.1 19.1-101.3 52.9-143.4m527.1 1047.6c-67 12.1-130.8-24.5-181.2-48-76.9-35.9-237.5-85.4-341-104.6-90-16.7-204.3-32.6-250.6-131.8C-18.1 748 4.5 670.9 54.9 587.2m855-405.3c106.4 10.8 188.4 46.3 227.7 130.6 46.2 99.2-8.7 202.9-60.3 276.6s-127 219.5-135.8 311.3c-7.7 80.3-31.2 145.6-87.5 184.2M424.4 104.5c8.6-2.4 17.5-4 26.4-4.8 47.8-4.1 95.4 15.9 143.9 49.3 0 0 143.9 81.5 250.1 100.8" class="st0"/>
  <path d="M202.3 882.2c-27.3-15.7-50.5-37.7-65.5-69.8-37.5-80.6-3.2-159.3 57.8-247.6 84.2-122 100.9-229.6 108.6-287.2 7.8-57.7 27.7-131.8 96.8-164m532 775.7c-9.2 72.9-35.2 130-96.6 158.6-69.1 32.2-136.5-7.5-187.8-31.4-66.4-31-205-73.7-294.4-90.3-26-4.8-54.4-9.6-82.2-17m641.2-652.7c88.9 10.1 157.3 40.9 190.5 112.1 39.9 85.6-7.5 175.1-52 238.8-44.6 63.7-109.6 189.5-117.3 268.7" class="st0"/>
  <path d="M1014.2 640.4c-36.6 56.6-82.9 150.4-88.7 211.3-6.4 66.7-27.8 119.1-82.5 144.6-58.2 27.1-114.9-6.3-158-26.5-55.9-26.1-172.5-62-247.7-76-65.4-12.1-148.4-23.7-182-95.8-31.6-67.8-2.7-134 48.7-208.4 6.8-9.8 13-19.5 18.8-29m27.9-53C381.8 440 390.4 383 395.1 348c6.5-48.5 23.3-110.9 81.4-138 54.7-25.5 108.6-8.1 163.8 29.8 0 0 147.1 83.3 236.7 88 89.6 4.7 159.2 29 190.8 96.8 33.6 72.1-6.3 147.4-43.8 201" class="st0"/>
  <path d="M574.3 299.1c37.2-8.5 74.1 5.6 111.8 31.5 0 0 119.4 67.6 192.1 71.4 12.4.7 24.4 1.8 35.8 3.5M745.6 934.4c-8.2-3.8-16.1-7.7-23.5-11.2-45.3-21.2-140-50.3-201.1-61.7-53.1-9.9-120.5-19.2-147.7-77.7-25.6-55.1-2.2-108.8 39.5-169.1 57.5-83.3 68.9-156.8 74.2-196.2 3.5-25.7 10.4-56.2 28-80.4m457.6 83.7c26.7 12.3 47.5 31.1 60.4 58.8 27.2 58.5-5.1 119.6-35.5 163.1s-74.9 129.4-80.1 183.6c-5.2 54.1-22.6 96.7-67 117.4-12.9 6-27.1 8.8-41.4 8.2" class="st0"/>
  <path d="M553 817.6c-25.5-8-49-21.4-61.4-48.2-19.7-42.3-1.7-83.5 30.3-129.9 44.2-64 52.9-120.4 57-150.7s14.5-69.1 50.8-86c34.1-15.9 67.7-5.1 102.1 18.6 0 0 1.7.9 4.7 2.6m64.8 30.9c26.2 10.7 55.1 20.2 78 21.3 55.9 2.9 99.3 18.1 119 60.4 20.9 44.9-3.9 91.9-27.3 125.3-12.7 18.1-28.5 45.8-41 74" class="st0"/>
  <path d="M669.6 567.1c.4-2.8.8-5.4 1.1-7.8 2.8-21.1 10.1-48.3 35.4-60 23.8-11.1 47.3-3.5 71.3 13 0 0 64 36.2 103 38.3 39 2 69.3 12.6 83 42.1 14.6 31.4-2.7 64.1-19.1 87.4-16.3 23.3-40.2 69.4-42.9 98.4-2.8 29-12.1 51.8-35.9 62.9-25.3 11.8-50-2.7-68.8-11.5-24.3-11.3-75.1-27-107.8-33.1-28.5-5.3-64.6-10.3-79.2-41.7-13.7-29.5-1.2-58.3 21.2-90.7 14.6-20.9 25.6-44.2 32.6-68.7" class="st0"/>
</svg>
